<svg width="460" height="94" viewBox="0 0 460 94" fill="none" xmlns="http://www.w3.org/2000/svg">
<rect width="460" height="94" rx="47" fill="white"/>
<path d="M50.5696 36.9773C50.5696 36.9773 46.7009 44.0613 53.862 48.0894C61.0231 52.1175 64.0687 44.7146 64.0687 44.7146C64.0687 44.7146 69.9561 48.1717 70.7359 49.1594C71.5157 50.1472 70.8423 53.3733 70.9005 58.3784C70.9005 58.3784 73.0406 56.9791 75.0161 56.9791C76.9916 56.9791 79.0494 58.296 79.0494 62.0824C79.0494 65.8687 76.9093 67.5149 75.0161 67.9265C73.123 68.3381 70.9005 67.6796 70.9005 67.6796C70.9005 67.6796 71.1475 75.1752 71.1475 76.1577C71.1475 78.627 67.6081 79.5325 66.785 78.9563C65.9618 78.3801 42.8323 66.6918 42.2561 64.3871C41.6799 62.0824 42.2561 35.7426 42.2561 35.7426C43.82 31.2978 50.5696 36.9773 50.5696 36.9773Z" fill="url(#paint0_linear_590_8)"/>
<path d="M73.9446 70.5605C73.9446 70.5605 81.5187 69.2435 81.5187 61.177C81.5187 53.1104 73.9446 54.4768 73.9446 54.4768C73.9446 54.4768 73.5279 48.3363 73.9446 47.5132C74.3613 46.6901 78.7783 44.7153 83.2394 42.4453C83.2394 42.4453 81.0366 41.1468 80.1613 39.3758C79.2859 37.6049 80.2639 34.4968 82.9491 33.1695C85.6343 31.8423 88.7675 33.0101 89.9753 34.5249C91.1831 36.0397 91.5776 38.3238 91.5776 38.3238C91.5776 38.3238 97.6353 34.9602 98.5161 34.5249C100.73 33.4307 102.261 35.4957 102.261 35.4957C102.261 35.4957 101.97 62.5027 101.319 65.4615C100.668 68.4204 77.0739 79.4501 77.0739 79.4501C72.3962 80.0177 73.9446 70.5605 73.9446 70.5605Z" fill="url(#paint1_linear_590_8)"/>
<path d="M101.321 65.525C101.803 62.4649 102.264 35.4769 102.264 35.4769C102.264 35.4769 100.732 33.4118 98.5187 34.506C98.5187 34.506 83.6587 43.9739 90.2437 55.6621C96.8286 67.3504 76.8269 79.6148 76.8269 79.6148C76.8269 79.6148 100.84 68.5851 101.321 65.525Z" fill="url(#paint2_linear_590_8)"/>
<path d="M81.1894 31.6271C74.6044 34.8372 79.1316 42.3276 79.1316 42.3276C79.1316 42.3276 73.9459 45.7847 71.312 45.7847C68.678 45.7847 67.2095 44.2534 62.8339 41.5868C62.8339 41.5868 62.6555 42.9038 61.3523 44.4677C60.049 46.0316 57.4836 47.9248 54.6027 46.3609C51.7218 44.7969 51.3102 41.9983 52.1334 39.4467C52.9565 36.895 54.6027 36.0031 54.6027 36.0031C51.6027 34.0998 49.248 32.5566 48.6763 32.121C46.9477 30.804 47.5239 29.1577 48.6763 28.5816C49.8286 28.0054 70.3243 15.0485 72.5467 15.0001C74.7691 14.9518 95.4293 27.5116 96.2524 28.5816C97.0755 29.6516 96.2524 31.3802 95.7585 32.121C94.8562 33.4745 92.8776 34.0964 92.8776 34.0964C92.8776 34.0964 87.7743 28.4169 81.1894 31.6271Z" fill="url(#paint3_linear_590_8)"/>
<path d="M96.3557 28.582C97.1788 29.652 96.1911 31.5452 95.6972 32.286C95.6972 32.286 88.749 23.4581 72.3207 23.8898C55.8924 24.3215 48.8618 32.2037 48.8618 32.2037C47.1333 30.8867 47.2979 29.1581 48.4503 28.582C49.6026 28.0058 69.8722 15.0538 72.3207 15.0005C74.7691 14.9473 95.5326 27.5119 96.3557 28.582Z" fill="url(#paint4_linear_590_8)"/>
<path d="M42.2651 64.3871C42.8413 66.6918 65.9709 78.3801 66.794 78.9563C67.6171 79.5325 71.1565 78.627 71.1565 76.1577C71.1565 76.1577 70.6535 57.8845 56.3313 57.8845C42.009 57.8845 42.2651 35.4957 42.2651 35.4957C42.2651 35.4957 41.6889 62.0824 42.2651 64.3871Z" fill="url(#paint5_linear_590_8)"/>
<path d="M88.2272 65.919L84.3997 68.0088V58.0491C85.7951 57.9738 86.6224 57.8278 88.2272 57.2672V65.919Z" fill="white"/>
<path d="M92.5897 63.3506L89.1326 65.5806V56.8556C90.573 56.1148 91.1904 55.8267 92.5897 54.5508V63.3506Z" fill="white"/>
<path d="M96.8699 60.8157L93.4951 63.029V53.81C95.0487 52.7018 95.7632 51.9626 96.8699 50.5176V60.8157Z" fill="white"/>
<path d="M91.602 54.5097C88.433 56.898 84.3174 57.4729 84.3174 57.4729C84.3174 57.4729 88.1037 55.1682 90.7377 52.9458C93.3717 50.7234 94.8121 47.8425 94.8121 47.8425L93.5363 46.6901L98.8042 45.0439L97.8577 50.6822L96.8288 49.4064C96.8288 49.4064 94.771 52.1215 91.602 54.5097Z" fill="white"/>
<path d="M53.1437 63.522L56.9417 64.2884C56.9417 64.2884 56.8569 63.3729 57.4018 62.8989C57.9466 62.425 59.1439 61.6084 59.621 60.3572C60.098 59.106 59.768 55.5314 56.4955 55.1502C53.223 54.7689 51.9521 57.7357 51.9715 59.0311C51.9908 60.3266 52.8363 61.4836 53.0858 62.028C53.3353 62.5725 53.1437 63.522 53.1437 63.522Z" fill="white"/>
<rect x="53.0282" y="63.8359" width="3.87459" height="0.968647" transform="rotate(11.394 53.0282 63.8359)" fill="white"/>
<path d="M54.4884 66.6457C53.2928 66.4225 52.8397 65.1727 52.8397 65.1727L56.5756 65.9166C56.5756 65.9166 55.684 66.869 54.4884 66.6457Z" fill="white"/>
<path d="M57.1409 51.8213C57.4723 51.6866 57.6592 51.6532 58.0041 51.9953L57.4996 54.4987C57.0987 54.6464 56.9164 54.5857 56.6364 54.3247L57.1409 51.8213Z" fill="white"/>
<path d="M48.5399 57.9804C48.4255 57.6415 48.4036 57.4528 48.766 57.1294L51.2341 57.7851C51.3572 58.1942 51.2855 58.3724 51.0079 58.6361L48.5399 57.9804Z" fill="white"/>
<path d="M60.1509 60.9105C60.0366 60.5715 60.0146 60.3829 60.3771 60.0594L62.8451 60.7151C62.9682 61.1242 62.8966 61.3025 62.619 61.5662L60.1509 60.9105Z" fill="white"/>
<path d="M49.9866 63.2044C49.6586 63.0617 49.504 62.9514 49.5074 62.4656L51.6499 61.0759C52.0358 61.2592 52.1199 61.4319 52.1291 61.8147L49.9866 63.2044Z" fill="white"/>
<path d="M60.2636 56.578C59.9356 56.4354 59.781 56.325 59.7844 55.8392L61.9269 54.4496C62.3128 54.6328 62.3968 54.8056 62.4061 55.1883L60.2636 56.578Z" fill="white"/>
<path d="M60.3714 64.6775C60.243 65.0114 60.1394 65.1705 59.6539 65.188L58.1736 63.1071C58.3401 62.7137 58.5091 62.6223 58.8911 62.5966L60.3714 64.6775Z" fill="white"/>
<path d="M53.3553 54.9802C53.2269 55.314 53.1232 55.4732 52.6378 55.4906L51.1575 53.4098C51.324 53.0163 51.493 52.9249 51.875 52.8993L53.3553 54.9802Z" fill="white"/>
<path d="M128.447 44.14C127.42 44.14 126.5 43.9733 125.687 43.64C124.874 43.3067 124.22 42.8133 123.727 42.16C123.247 41.5067 122.994 40.72 122.967 39.8H126.607C126.66 40.32 126.84 40.72 127.147 41C127.454 41.2667 127.854 41.4 128.347 41.4C128.854 41.4 129.254 41.2867 129.547 41.06C129.84 40.82 129.987 40.4933 129.987 40.08C129.987 39.7333 129.867 39.4467 129.627 39.22C129.4 38.9933 129.114 38.8067 128.767 38.66C128.434 38.5133 127.954 38.3467 127.327 38.16C126.42 37.88 125.68 37.6 125.107 37.32C124.534 37.04 124.04 36.6267 123.627 36.08C123.214 35.5333 123.007 34.82 123.007 33.94C123.007 32.6333 123.48 31.6133 124.427 30.88C125.374 30.1333 126.607 29.76 128.127 29.76C129.674 29.76 130.92 30.1333 131.867 30.88C132.814 31.6133 133.32 32.64 133.387 33.96H129.687C129.66 33.5067 129.494 33.1533 129.187 32.9C128.88 32.6333 128.487 32.5 128.007 32.5C127.594 32.5 127.26 32.6133 127.007 32.84C126.754 33.0533 126.627 33.3667 126.627 33.78C126.627 34.2333 126.84 34.5867 127.267 34.84C127.694 35.0933 128.36 35.3667 129.267 35.66C130.174 35.9667 130.907 36.26 131.467 36.54C132.04 36.82 132.534 37.2267 132.947 37.76C133.36 38.2933 133.567 38.98 133.567 39.82C133.567 40.62 133.36 41.3467 132.947 42C132.547 42.6533 131.96 43.1733 131.187 43.56C130.414 43.9467 129.5 44.14 128.447 44.14ZM142.312 44.14C140.992 44.14 139.778 43.8333 138.672 43.22C137.578 42.6067 136.705 41.7533 136.052 40.66C135.412 39.5533 135.092 38.3133 135.092 36.94C135.092 35.5667 135.412 34.3333 136.052 33.24C136.705 32.1467 137.578 31.2933 138.672 30.68C139.778 30.0667 140.992 29.76 142.312 29.76C143.632 29.76 144.838 30.0667 145.932 30.68C147.038 31.2933 147.905 32.1467 148.532 33.24C149.172 34.3333 149.492 35.5667 149.492 36.94C149.492 38.3133 149.172 39.5533 148.532 40.66C147.892 41.7533 147.025 42.6067 145.932 43.22C144.838 43.8333 143.632 44.14 142.312 44.14ZM142.312 41.02C143.432 41.02 144.325 40.6467 144.992 39.9C145.672 39.1533 146.012 38.1667 146.012 36.94C146.012 35.7 145.672 34.7133 144.992 33.98C144.325 33.2333 143.432 32.86 142.312 32.86C141.178 32.86 140.272 33.2267 139.592 33.96C138.925 34.6933 138.592 35.6867 138.592 36.94C138.592 38.18 138.925 39.1733 139.592 39.92C140.272 40.6533 141.178 41.02 142.312 41.02ZM154.814 32.7V35.54H159.394V38.18H154.814V41.26H159.994V44H151.394V29.96H159.994V32.7H154.814ZM167.475 29.96C168.955 29.96 170.248 30.2533 171.355 30.84C172.461 31.4267 173.315 32.2533 173.915 33.32C174.528 34.3733 174.835 35.5933 174.835 36.98C174.835 38.3533 174.528 39.5733 173.915 40.64C173.315 41.7067 172.455 42.5333 171.335 43.12C170.228 43.7067 168.941 44 167.475 44H162.215V29.96H167.475ZM167.255 41.04C168.548 41.04 169.555 40.6867 170.275 39.98C170.995 39.2733 171.355 38.2733 171.355 36.98C171.355 35.6867 170.995 34.68 170.275 33.96C169.555 33.24 168.548 32.88 167.255 32.88H165.635V41.04H167.255ZM180.166 29.96V44H176.746V29.96H180.166ZM189.804 44L186.884 38.7H186.064V44H182.644V29.96H188.384C189.491 29.96 190.431 30.1533 191.204 30.54C191.991 30.9267 192.578 31.46 192.964 32.14C193.351 32.8067 193.544 33.5533 193.544 34.38C193.544 35.3133 193.278 36.1467 192.744 36.88C192.224 37.6133 191.451 38.1333 190.424 38.44L193.664 44H189.804ZM186.064 36.28H188.184C188.811 36.28 189.278 36.1267 189.584 35.82C189.904 35.5133 190.064 35.08 190.064 34.52C190.064 33.9867 189.904 33.5667 189.584 33.26C189.278 32.9533 188.811 32.8 188.184 32.8H186.064V36.28ZM211.591 29.96V44H208.171V35.58L205.031 44H202.271L199.111 35.56V44H195.691V29.96H199.731L203.671 39.68L207.571 29.96H211.591ZM222.791 41.52H217.551L216.711 44H213.131L218.211 29.96H222.171L227.251 44H223.631L222.791 41.52ZM221.911 38.88L220.171 33.74L218.451 38.88H221.911ZM241.357 44H237.937L232.217 35.34V44H228.797V29.96H232.217L237.937 38.66V29.96H241.357V44ZM253.334 29.96C254.814 29.96 256.107 30.2533 257.214 30.84C258.321 31.4267 259.174 32.2533 259.774 33.32C260.387 34.3733 260.694 35.5933 260.694 36.98C260.694 38.3533 260.387 39.5733 259.774 40.64C259.174 41.7067 258.314 42.5333 257.194 43.12C256.087 43.7067 254.801 44 253.334 44H248.074V29.96H253.334ZM253.114 41.04C254.407 41.04 255.414 40.6867 256.134 39.98C256.854 39.2733 257.214 38.2733 257.214 36.98C257.214 35.6867 256.854 34.68 256.134 33.96C255.414 33.24 254.407 32.88 253.114 32.88H251.494V41.04H253.114ZM266.025 29.96V44H262.605V29.96H266.025ZM277.824 34.4C277.57 33.9333 277.204 33.58 276.724 33.34C276.257 33.0867 275.704 32.96 275.064 32.96C273.957 32.96 273.07 33.3267 272.404 34.06C271.737 34.78 271.404 35.7467 271.404 36.96C271.404 38.2533 271.75 39.2667 272.444 40C273.15 40.72 274.117 41.08 275.344 41.08C276.184 41.08 276.89 40.8667 277.464 40.44C278.05 40.0133 278.477 39.4 278.744 38.6H274.404V36.08H281.844V39.26C281.59 40.1133 281.157 40.9067 280.544 41.64C279.944 42.3733 279.177 42.9667 278.244 43.42C277.31 43.8733 276.257 44.1 275.084 44.1C273.697 44.1 272.457 43.8 271.364 43.2C270.284 42.5867 269.437 41.74 268.824 40.66C268.224 39.58 267.924 38.3467 267.924 36.96C267.924 35.5733 268.224 34.34 268.824 33.26C269.437 32.1667 270.284 31.32 271.364 30.72C272.444 30.1067 273.677 29.8 275.064 29.8C276.744 29.8 278.157 30.2067 279.304 31.02C280.464 31.8333 281.23 32.96 281.604 34.4H277.824ZM287.158 29.96V44H283.738V29.96H287.158ZM299.736 29.96V32.7H296.016V44H292.596V32.7H288.876V29.96H299.736ZM310.193 41.52H304.953L304.113 44H300.533L305.613 29.96H309.573L314.653 44H311.033L310.193 41.52ZM309.313 38.88L307.573 33.74L305.853 38.88H309.313ZM319.619 41.36H324.099V44H316.199V29.96H319.619V41.36ZM335.049 44.14C334.022 44.14 333.102 43.9733 332.289 43.64C331.475 43.3067 330.822 42.8133 330.329 42.16C329.849 41.5067 329.595 40.72 329.569 39.8H333.209C333.262 40.32 333.442 40.72 333.749 41C334.055 41.2667 334.455 41.4 334.949 41.4C335.455 41.4 335.855 41.2867 336.149 41.06C336.442 40.82 336.589 40.4933 336.589 40.08C336.589 39.7333 336.469 39.4467 336.229 39.22C336.002 38.9933 335.715 38.8067 335.369 38.66C335.035 38.5133 334.555 38.3467 333.929 38.16C333.022 37.88 332.282 37.6 331.709 37.32C331.135 37.04 330.642 36.6267 330.229 36.08C329.815 35.5333 329.609 34.82 329.609 33.94C329.609 32.6333 330.082 31.6133 331.029 30.88C331.975 30.1333 333.209 29.76 334.729 29.76C336.275 29.76 337.522 30.1333 338.469 30.88C339.415 31.6133 339.922 32.64 339.989 33.96H336.289C336.262 33.5067 336.095 33.1533 335.789 32.9C335.482 32.6333 335.089 32.5 334.609 32.5C334.195 32.5 333.862 32.6133 333.609 32.84C333.355 33.0533 333.229 33.3667 333.229 33.78C333.229 34.2333 333.442 34.5867 333.869 34.84C334.295 35.0933 334.962 35.3667 335.869 35.66C336.775 35.9667 337.509 36.26 338.069 36.54C338.642 36.82 339.135 37.2267 339.549 37.76C339.962 38.2933 340.169 38.98 340.169 39.82C340.169 40.62 339.962 41.3467 339.549 42C339.149 42.6533 338.562 43.1733 337.789 43.56C337.015 43.9467 336.102 44.14 335.049 44.14ZM341.693 36.96C341.693 35.5733 341.993 34.34 342.593 33.26C343.193 32.1667 344.027 31.32 345.093 30.72C346.173 30.1067 347.393 29.8 348.753 29.8C350.42 29.8 351.847 30.24 353.033 31.12C354.22 32 355.013 33.2 355.413 34.72H351.653C351.373 34.1333 350.973 33.6867 350.453 33.38C349.947 33.0733 349.367 32.92 348.713 32.92C347.66 32.92 346.807 33.2867 346.153 34.02C345.5 34.7533 345.173 35.7333 345.173 36.96C345.173 38.1867 345.5 39.1667 346.153 39.9C346.807 40.6333 347.66 41 348.713 41C349.367 41 349.947 40.8467 350.453 40.54C350.973 40.2333 351.373 39.7867 351.653 39.2H355.413C355.013 40.72 354.22 41.92 353.033 42.8C351.847 43.6667 350.42 44.1 348.753 44.1C347.393 44.1 346.173 43.8 345.093 43.2C344.027 42.5867 343.193 41.74 342.593 40.66C341.993 39.58 341.693 38.3467 341.693 36.96ZM369.668 29.96V44H366.248V38.22H360.928V44H357.508V29.96H360.928V35.46H366.248V29.96H369.668ZM378.776 44.14C377.456 44.14 376.243 43.8333 375.136 43.22C374.043 42.6067 373.17 41.7533 372.516 40.66C371.876 39.5533 371.556 38.3133 371.556 36.94C371.556 35.5667 371.876 34.3333 372.516 33.24C373.17 32.1467 374.043 31.2933 375.136 30.68C376.243 30.0667 377.456 29.76 378.776 29.76C380.096 29.76 381.303 30.0667 382.396 30.68C383.503 31.2933 384.37 32.1467 384.996 33.24C385.636 34.3333 385.956 35.5667 385.956 36.94C385.956 38.3133 385.636 39.5533 384.996 40.66C384.356 41.7533 383.49 42.6067 382.396 43.22C381.303 43.8333 380.096 44.14 378.776 44.14ZM378.776 41.02C379.896 41.02 380.79 40.6467 381.456 39.9C382.136 39.1533 382.476 38.1667 382.476 36.94C382.476 35.7 382.136 34.7133 381.456 33.98C380.79 33.2333 379.896 32.86 378.776 32.86C377.643 32.86 376.736 33.2267 376.056 33.96C375.39 34.6933 375.056 35.6867 375.056 36.94C375.056 38.18 375.39 39.1733 376.056 39.92C376.736 40.6533 377.643 41.02 378.776 41.02ZM394.499 44.14C393.179 44.14 391.966 43.8333 390.859 43.22C389.766 42.6067 388.892 41.7533 388.239 40.66C387.599 39.5533 387.279 38.3133 387.279 36.94C387.279 35.5667 387.599 34.3333 388.239 33.24C388.892 32.1467 389.766 31.2933 390.859 30.68C391.966 30.0667 393.179 29.76 394.499 29.76C395.819 29.76 397.026 30.0667 398.119 30.68C399.226 31.2933 400.092 32.1467 400.719 33.24C401.359 34.3333 401.679 35.5667 401.679 36.94C401.679 38.3133 401.359 39.5533 400.719 40.66C400.079 41.7533 399.212 42.6067 398.119 43.22C397.026 43.8333 395.819 44.14 394.499 44.14ZM394.499 41.02C395.619 41.02 396.512 40.6467 397.179 39.9C397.859 39.1533 398.199 38.1667 398.199 36.94C398.199 35.7 397.859 34.7133 397.179 33.98C396.512 33.2333 395.619 32.86 394.499 32.86C393.366 32.86 392.459 33.2267 391.779 33.96C391.112 34.6933 390.779 35.6867 390.779 36.94C390.779 38.18 391.112 39.1733 391.779 39.92C392.459 40.6533 393.366 41.02 394.499 41.02ZM407.002 41.36H411.482V44H403.582V29.96H407.002V41.36Z" fill="black"/>
<rect x="122" y="52" width="290" height="22" rx="11" fill="url(#paint6_linear_590_8)"/>
<path d="M156.555 62.6C157.165 62.73 157.655 63.035 158.025 63.515C158.395 63.985 158.58 64.525 158.58 65.135C158.58 66.015 158.27 66.715 157.65 67.235C157.04 67.745 156.185 68 155.085 68H150.18V57.47H154.92C155.99 57.47 156.825 57.715 157.425 58.205C158.035 58.695 158.34 59.36 158.34 60.2C158.34 60.82 158.175 61.335 157.845 61.745C157.525 62.155 157.095 62.44 156.555 62.6ZM152.745 61.73H154.425C154.845 61.73 155.165 61.64 155.385 61.46C155.615 61.27 155.73 60.995 155.73 60.635C155.73 60.275 155.615 60 155.385 59.81C155.165 59.62 154.845 59.525 154.425 59.525H152.745V61.73ZM154.635 65.93C155.065 65.93 155.395 65.835 155.625 65.645C155.865 65.445 155.985 65.16 155.985 64.79C155.985 64.42 155.86 64.13 155.61 63.92C155.37 63.71 155.035 63.605 154.605 63.605H152.745V65.93H154.635ZM169.833 59.525V61.655H173.268V63.635H169.833V65.945H173.718V68H167.268V57.47H173.718V59.525H169.833ZM194.508 57.47V68H191.943V61.685L189.588 68H187.518L185.148 61.67V68H182.583V57.47H185.613L188.568 64.76L191.493 57.47H194.508ZM216.452 57.47V63.77C216.452 64.4 216.607 64.885 216.917 65.225C217.227 65.565 217.682 65.735 218.282 65.735C218.882 65.735 219.342 65.565 219.662 65.225C219.982 64.885 220.142 64.4 220.142 63.77V57.47H222.707V63.755C222.707 64.695 222.507 65.49 222.107 66.14C221.707 66.79 221.167 67.28 220.487 67.61C219.817 67.94 219.067 68.105 218.237 68.105C217.407 68.105 216.662 67.945 216.002 67.625C215.352 67.295 214.837 66.805 214.457 66.155C214.077 65.495 213.887 64.695 213.887 63.755V57.47H216.452ZM241.128 68H238.563L234.273 61.505V68H231.708V57.47H234.273L238.563 63.995V57.47H241.128V68ZM253.997 68.105C253.227 68.105 252.537 67.98 251.927 67.73C251.317 67.48 250.827 67.11 250.457 66.62C250.097 66.13 249.907 65.54 249.887 64.85H252.617C252.657 65.24 252.792 65.54 253.022 65.75C253.252 65.95 253.552 66.05 253.922 66.05C254.302 66.05 254.602 65.965 254.822 65.795C255.042 65.615 255.152 65.37 255.152 65.06C255.152 64.8 255.062 64.585 254.882 64.415C254.712 64.245 254.497 64.105 254.237 63.995C253.987 63.885 253.627 63.76 253.157 63.62C252.477 63.41 251.922 63.2 251.492 62.99C251.062 62.78 250.692 62.47 250.382 62.06C250.072 61.65 249.917 61.115 249.917 60.455C249.917 59.475 250.272 58.71 250.982 58.16C251.692 57.6 252.617 57.32 253.757 57.32C254.917 57.32 255.852 57.6 256.562 58.16C257.272 58.71 257.652 59.48 257.702 60.47H254.927C254.907 60.13 254.782 59.865 254.552 59.675C254.322 59.475 254.027 59.375 253.667 59.375C253.357 59.375 253.107 59.46 252.917 59.63C252.727 59.79 252.632 60.025 252.632 60.335C252.632 60.675 252.792 60.94 253.112 61.13C253.432 61.32 253.932 61.525 254.612 61.745C255.292 61.975 255.842 62.195 256.262 62.405C256.692 62.615 257.062 62.92 257.372 63.32C257.682 63.72 257.837 64.235 257.837 64.865C257.837 65.465 257.682 66.01 257.372 66.5C257.072 66.99 256.632 67.38 256.052 67.67C255.472 67.96 254.787 68.105 253.997 68.105ZM271.596 68.105C270.606 68.105 269.696 67.875 268.866 67.415C268.046 66.955 267.391 66.315 266.901 65.495C266.421 64.665 266.181 63.735 266.181 62.705C266.181 61.675 266.421 60.75 266.901 59.93C267.391 59.11 268.046 58.47 268.866 58.01C269.696 57.55 270.606 57.32 271.596 57.32C272.586 57.32 273.491 57.55 274.311 58.01C275.141 58.47 275.791 59.11 276.261 59.93C276.741 60.75 276.981 61.675 276.981 62.705C276.981 63.735 276.741 64.665 276.261 65.495C275.781 66.315 275.131 66.955 274.311 67.415C273.491 67.875 272.586 68.105 271.596 68.105ZM271.596 65.765C272.436 65.765 273.106 65.485 273.606 64.925C274.116 64.365 274.371 63.625 274.371 62.705C274.371 61.775 274.116 61.035 273.606 60.485C273.106 59.925 272.436 59.645 271.596 59.645C270.746 59.645 270.066 59.92 269.556 60.47C269.056 61.02 268.806 61.765 268.806 62.705C268.806 63.635 269.056 64.38 269.556 64.94C270.066 65.49 270.746 65.765 271.596 65.765ZM288.173 59.525V61.655H291.608V63.635H288.173V65.945H292.058V68H285.608V57.47H292.058V59.525H288.173ZM304.868 57.47C305.978 57.47 306.948 57.69 307.778 58.13C308.608 58.57 309.248 59.19 309.698 59.99C310.158 60.78 310.388 61.695 310.388 62.735C310.388 63.765 310.158 64.68 309.698 65.48C309.248 66.28 308.603 66.9 307.763 67.34C306.933 67.78 305.968 68 304.868 68H300.923V57.47H304.868ZM304.703 65.78C305.673 65.78 306.428 65.515 306.968 64.985C307.508 64.455 307.778 63.705 307.778 62.735C307.778 61.765 307.508 61.01 306.968 60.47C306.428 59.93 305.673 59.66 304.703 59.66H303.488V65.78H304.703ZM329.055 65.945C329.395 65.675 329.55 65.55 329.52 65.57C330.5 64.76 331.27 64.095 331.83 63.575C332.4 63.055 332.88 62.51 333.27 61.94C333.66 61.37 333.855 60.815 333.855 60.275C333.855 59.865 333.76 59.545 333.57 59.315C333.38 59.085 333.095 58.97 332.715 58.97C332.335 58.97 332.035 59.115 331.815 59.405C331.605 59.685 331.5 60.085 331.5 60.605H329.025C329.045 59.755 329.225 59.045 329.565 58.475C329.915 57.905 330.37 57.485 330.93 57.215C331.5 56.945 332.13 56.81 332.82 56.81C334.01 56.81 334.905 57.115 335.505 57.725C336.115 58.335 336.42 59.13 336.42 60.11C336.42 61.18 336.055 62.175 335.325 63.095C334.595 64.005 333.665 64.895 332.535 65.765H336.585V67.85H329.055V65.945ZM344.914 62.375C344.914 60.655 345.244 59.3 345.904 58.31C346.574 57.32 347.649 56.825 349.129 56.825C350.609 56.825 351.679 57.32 352.339 58.31C353.009 59.3 353.344 60.655 353.344 62.375C353.344 64.115 353.009 65.48 352.339 66.47C351.679 67.46 350.609 67.955 349.129 67.955C347.649 67.955 346.574 67.46 345.904 66.47C345.244 65.48 344.914 64.115 344.914 62.375ZM350.824 62.375C350.824 61.365 350.714 60.59 350.494 60.05C350.274 59.5 349.819 59.225 349.129 59.225C348.439 59.225 347.984 59.5 347.764 60.05C347.544 60.59 347.434 61.365 347.434 62.375C347.434 63.055 347.474 63.62 347.554 64.07C347.634 64.51 347.794 64.87 348.034 65.15C348.284 65.42 348.649 65.555 349.129 65.555C349.609 65.555 349.969 65.42 350.209 65.15C350.459 64.87 350.624 64.51 350.704 64.07C350.784 63.62 350.824 63.055 350.824 62.375ZM361.809 65.945C362.149 65.675 362.304 65.55 362.274 65.57C363.254 64.76 364.024 64.095 364.584 63.575C365.154 63.055 365.634 62.51 366.024 61.94C366.414 61.37 366.609 60.815 366.609 60.275C366.609 59.865 366.514 59.545 366.324 59.315C366.134 59.085 365.849 58.97 365.469 58.97C365.089 58.97 364.789 59.115 364.569 59.405C364.359 59.685 364.254 60.085 364.254 60.605H361.779C361.799 59.755 361.979 59.045 362.319 58.475C362.669 57.905 363.124 57.485 363.684 57.215C364.254 56.945 364.884 56.81 365.574 56.81C366.764 56.81 367.659 57.115 368.259 57.725C368.869 58.335 369.174 59.13 369.174 60.11C369.174 61.18 368.809 62.175 368.079 63.095C367.349 64.005 366.419 64.895 365.289 65.765H369.339V67.85H361.809V65.945ZM385.379 59.285H380.699V61.355C380.899 61.135 381.179 60.955 381.539 60.815C381.899 60.675 382.289 60.605 382.709 60.605C383.459 60.605 384.079 60.775 384.569 61.115C385.069 61.455 385.434 61.895 385.664 62.435C385.894 62.975 386.009 63.56 386.009 64.19C386.009 65.36 385.679 66.29 385.019 66.98C384.359 67.66 383.429 68 382.229 68C381.429 68 380.734 67.865 380.144 67.595C379.554 67.315 379.099 66.93 378.779 66.44C378.459 65.95 378.284 65.385 378.254 64.745H380.759C380.819 65.055 380.964 65.315 381.194 65.525C381.424 65.725 381.739 65.825 382.139 65.825C382.609 65.825 382.959 65.675 383.189 65.375C383.419 65.075 383.534 64.675 383.534 64.175C383.534 63.685 383.414 63.31 383.174 63.05C382.934 62.79 382.584 62.66 382.124 62.66C381.784 62.66 381.504 62.745 381.284 62.915C381.064 63.075 380.919 63.29 380.849 63.56H378.374V57.035H385.379V59.285Z" fill="white"/>
<defs>
<linearGradient id="paint0_linear_590_8" x1="42.0091" y1="51.958" x2="79.0494" y2="64.993" gradientUnits="userSpaceOnUse">
<stop stop-color="#066DB8"/>
<stop offset="0.498823" stop-color="#0977C3"/>
<stop offset="1" stop-color="#12CDD1"/>
</linearGradient>
<linearGradient id="paint1_linear_590_8" x1="86.622" y1="37.8004" x2="90.7376" y2="73.3591" gradientUnits="userSpaceOnUse">
<stop offset="0.00480769" stop-color="#DC1E4E"/>
<stop offset="0.501026" stop-color="#9B108F"/>
<stop offset="0.991252" stop-color="#422FAC"/>
</linearGradient>
<linearGradient id="paint2_linear_590_8" x1="88.1859" y1="74.6761" x2="98.6395" y2="40.7637" gradientUnits="userSpaceOnUse">
<stop offset="0.00480769" stop-color="#DC1E4E"/>
<stop offset="0.495128" stop-color="#9B108F"/>
<stop offset="0.991252" stop-color="#422FAC"/>
</linearGradient>
<linearGradient id="paint3_linear_590_8" x1="80.8601" y1="18.3749" x2="51.5572" y2="46.6901" gradientUnits="userSpaceOnUse">
<stop stop-color="#F26422"/>
<stop offset="0.556702" stop-color="#FCB412"/>
<stop offset="1" stop-color="#FED815"/>
</linearGradient>
<linearGradient id="paint4_linear_590_8" x1="54.0266" y1="23.5605" x2="91.2315" y2="24.7952" gradientUnits="userSpaceOnUse">
<stop stop-color="#F26422"/>
<stop offset="0.556702" stop-color="#FCB412"/>
<stop offset="1" stop-color="#FED815"/>
</linearGradient>
<linearGradient id="paint5_linear_590_8" x1="75.3504" y1="71.3625" x2="45.7262" y2="45.5885" gradientUnits="userSpaceOnUse">
<stop stop-color="#066DB8"/>
<stop offset="0.498823" stop-color="#0977C3"/>
<stop offset="1" stop-color="#12CDD1"/>
</linearGradient>
<linearGradient id="paint6_linear_590_8" x1="122" y1="63" x2="412" y2="63" gradientUnits="userSpaceOnUse">
<stop stop-color="#FF49C0"/>
<stop offset="0.524038" stop-color="#691350"/>
<stop offset="1" stop-color="#42113E"/>
</linearGradient>
</defs>
</svg>
